<?xml version="1.0" standalone="no"?><!DOCTYPE svg PUBLIC "-//W3C//DTD SVG 1.1//EN" "http://www.w3.org/Graphics/SVG/1.1/DTD/svg11.dtd"><svg t="1664097503120" class="icon" viewBox="0 0 1024 1024" version="1.1" xmlns="http://www.w3.org/2000/svg" p-id="34796" xmlns:xlink="http://www.w3.org/1999/xlink" width="200" height="200"><path d="M768 30.72 283.306667 30.72c-51.2 0-98.986667 44.373333-98.986667 98.986667l0 747.52c0 51.2 44.373333 95.573333 98.986667 95.573333l300.373333 0c0 0 71.68 0 116.053333 23.893333 3.413333 0 3.413333 3.413333 6.826667 3.413333 6.826667 0 10.24-3.413333 13.653333-6.826667 3.413333-6.826667 0-17.066667-6.826667-20.48-51.2-30.72-126.293333-30.72-129.706667-30.72L283.306667 942.08c-37.546667 0-64.853333-30.72-64.853333-64.853333L218.453333 129.706667c0-37.546667 30.72-64.853333 64.853333-64.853333l484.693333 0c37.546667 0 68.266667 30.72 68.266667 64.853333l0 747.52c0 37.546667-30.72 64.853333-68.266667 64.853333-6.826667 0-17.066667 6.826667-17.066667 17.066667s6.826667 17.066667 17.066667 17.066667c51.2 0 98.986667-44.373333 98.986667-95.573333L866.986667 129.706667C866.986667 78.506667 819.2 30.72 768 30.72z" p-id="34797" fill="#e6e6e6"></path><path d="M604.16 102.4 443.733333 102.4c-6.826667 0-17.066667 6.826667-17.066667 17.066667S436.906667 136.533333 443.733333 136.533333l160.426667 0c6.826667 0 17.066667-6.826667 17.066667-17.066667S610.986667 102.4 604.16 102.4z" p-id="34798" fill="#e6e6e6"></path><path d="M344.746667 307.2c-6.826667 6.826667-6.826667 17.066667 0 20.48l81.92 81.92c3.413333 3.413333 6.826667 3.413333 10.24 3.413333s6.826667 0 10.24-3.413333c6.826667-6.826667 6.826667-17.066667 0-20.48L365.226667 307.2C358.4 300.373333 351.573333 300.373333 344.746667 307.2z" p-id="34799" fill="#e6e6e6"></path><path d="M604.16 409.6c3.413333 3.413333 6.826667 3.413333 10.24 3.413333s6.826667 0 10.24-3.413333l81.92-81.92c6.826667-6.826667 6.826667-17.066667 0-20.48s-17.066667-6.826667-20.48 0l-81.92 81.92C597.333333 395.946667 597.333333 402.773333 604.16 409.6z" p-id="34800" fill="#e6e6e6"></path><path d="M716.8 460.8c6.826667 0 17.066667-6.826667 17.066667-17.066667s-6.826667-17.066667-17.066667-17.066667L334.506667 426.666667c-6.826667 0-17.066667 6.826667-17.066667 17.066667s6.826667 17.066667 17.066667 17.066667L512 460.8l0 105.813333L334.506667 566.613333c-6.826667 0-17.066667 6.826667-17.066667 17.066667s6.826667 17.066667 17.066667 17.066667L512 600.746667l0 139.946667c0 6.826667 6.826667 17.066667 17.066667 17.066667s17.066667-6.826667 17.066667-17.066667l0-139.946667L716.8 600.746667c6.826667 0 17.066667-6.826667 17.066667-17.066667s-6.826667-17.066667-17.066667-17.066667l-174.08 0 0-105.813333L716.8 460.8z" p-id="34801" fill="#e6e6e6"></path></svg>